#N canvas 339 540 363 203 10;
#X obj 22 14 r \$1;
#X obj 22 52 s \$0\$1;
#X obj 22 33 list prepend 0;
#X obj 125 147 outlet~ Left;
#X obj 216 147 outlet~ Right;
#X obj 125 127 tabread~ \$0\$1;
#X obj 216 127 tabread~ \$0\$1;
#X obj 126 91 *~ 2048;
#X obj 216 107 +~ 1;
#X obj 126 13 r SampleRate;
#X obj 206 13 r BufferSize;
#X obj 126 52 /;
#X obj 22 71 table \$0\$1;
#X obj 206 71 s \$0\$1;
#X msg 206 52 resize \$1;
#X obj 126 72 phasor~;
#X obj 206 33 * 2;
#X connect 0 0 2 0;
#X connect 2 0 1 0;
#X connect 5 0 3 0;
#X connect 6 0 4 0;
#X connect 7 0 8 0;
#X connect 7 0 5 0;
#X connect 8 0 6 0;
#X connect 9 0 11 0;
#X connect 10 0 11 1;
#X connect 10 0 16 0;
#X connect 11 0 15 0;
#X connect 14 0 13 0;
#X connect 15 0 7 0;
#X connect 16 0 14 0;
