#N canvas 581 259 296 89 10;
#X obj 25 46 dac~;
#X obj 25 29 adc~;
#X obj 66 33 pdplayer~;
#X obj 146 22 unsig~ 100;
#X obj 146 46 s Debug;
#X connect 1 0 0 0;
#X connect 1 0 3 0;
#X connect 1 1 0 1;
#X connect 1 1 3 0;
#X connect 3 0 4 0;
