#N canvas 347 399 322 159 10;
#X obj 18 87 catch~ UVoice\$1Left;
#X obj 169 87 catch~ UVoice\$1Right;
#X obj 18 107 s~ UVoice\$1Left;
#X obj 169 107 s~ UVoice\$1Right;
#N canvas 714 332 430 243 voice 1;
#X obj 83 72 r BufferSize;
#X obj 218 148 +~ 1;
#X obj 68 132 +~;
#X obj 83 112 * \$1;
#X msg 68 51 set UVoice\$1Left;
#X msg 218 51 set UVoice\$1Right;
#X obj 68 -11 r UVoice\$1;
#X obj 218 168 tabread~ UMasterReceive;
#X obj 68 168 tabread~ UMasterReceive;
#X obj 218 188 throw~ UVoiceEmpty;
#X obj 68 188 throw~ UVoiceEmpty;
#X obj 83 92 * 2;
#X obj 22 116 inlet~;
#X obj 284 98 r UVoice\$1Switch;
#X obj 68 9 sel -1;
#X msg 68 30 set UVoiceEmpty;
#X msg 218 30 set UVoiceEmpty;
#X obj 284 118 switch~;
#X connect 0 0 11 0;
#X connect 1 0 7 0;
#X connect 2 0 1 0;
#X connect 2 0 8 0;
#X connect 3 0 2 1;
#X connect 4 0 10 0;
#X connect 5 0 9 0;
#X connect 6 0 14 0;
#X connect 7 0 9 0;
#X connect 8 0 10 0;
#X connect 11 0 3 0;
#X connect 12 0 2 0;
#X connect 13 0 17 0;
#X connect 14 0 15 0;
#X connect 14 0 16 0;
#X connect 14 1 4 0;
#X connect 14 1 5 0;
#X connect 15 0 10 0;
#X connect 16 0 9 0;
#X restore 18 50 pd voice;
#X obj 17 25 inlet~;
#X connect 0 0 2 0;
#X connect 1 0 3 0;
#X connect 5 0 4 0;
