#N canvas 65 446 317 271 10;
#X obj 120 75 line~;
#X obj 18 16 inlet~ Left;
#X obj 93 16 inlet~ Right;
#X obj 18 91 *~;
#X obj 93 92 *~;
#X obj 18 206 *~;
#X obj 93 207 *~;
#X obj 46 242 dac~;
#X obj 120 190 line~;
#X obj 120 152 unpack f f;
#X obj 120 116 t a b;
#X obj 120 171 pack f f;
#X obj 211 37 r UMasterStop;
#X obj 120 37 r UMasterPlay;
#X obj 120 97 r UMasterVolume;
#X msg 211 56 \$1 100;
#X msg 120 56 \$1 20;
#X msg 165 133 20;
#X connect 0 0 3 1;
#X connect 0 0 4 1;
#X connect 1 0 3 0;
#X connect 2 0 4 0;
#X connect 3 0 5 0;
#X connect 4 0 6 0;
#X connect 5 0 7 0;
#X connect 6 0 7 1;
#X connect 8 0 6 1;
#X connect 8 0 5 1;
#X connect 9 0 11 0;
#X connect 9 1 11 1;
#X connect 10 0 9 0;
#X connect 10 1 17 0;
#X connect 11 0 8 0;
#X connect 12 0 16 0;
#X connect 12 0 15 0;
#X connect 13 0 16 0;
#X connect 14 0 10 0;
#X connect 16 0 0 0;
#X connect 17 0 11 1;
