#N canvas 829 351 336 400 10;
#X obj 130 260 line~;
#X obj 130 320 line~;
#X obj 130 167 r \$1_Volume;
#X obj 130 282 r \$1_Play;
#X obj 260 282 r \$1_Stop;
#X obj 103 161 *~;
#X obj 28 101 *~;
#X obj 103 101 *~;
#X obj 28 161 *~;
#X obj 28 276 *~;
#X obj 28 336 *~;
#X obj 103 276 *~;
#X obj 103 337 *~;
#X obj 59 85 line~;
#X obj 149 85 line~;
#X obj 180 145 line~;
#X obj 180 107 r \$1_Attenuation;
#X obj 149 46 r \$1_PanRight;
#X obj 59 46 r \$1_PanLeft;
#N canvas 934 611 450 300 HRFRight 0;
#X obj 38 55 inlet~;
#X obj 38 97 outlet~;
#X obj 38 76 lop~;
#X obj 81 59 line;
#X obj 81 21 r \$1_HRFRight;
#X msg 81 40 \$1 20;
#X connect 0 0 2 0;
#X connect 2 0 1 0;
#X connect 3 0 2 1;
#X connect 4 0 5 0;
#X connect 5 0 3 0;
#X restore 103 140 pd HRFRight;
#N canvas 934 611 450 300 HRFLeft 0;
#X obj 38 55 inlet~;
#X obj 38 97 outlet~;
#X obj 38 76 lop~;
#X obj 82 21 r \$1_HRFLeft;
#X obj 82 59 line;
#X msg 82 40 \$1 20;
#X connect 0 0 2 0;
#X connect 2 0 1 0;
#X connect 3 0 5 0;
#X connect 4 0 2 1;
#X connect 5 0 4 0;
#X restore 28 140 pd HRFLeft;
#X obj 130 222 unpack f f;
#X obj 130 186 t a b;
#X obj 130 241 pack f f;
#X obj 28 356 outlet~ Left;
#X obj 103 356 outlet~ Right;
#X obj 28 26 inlet~ Left;
#X obj 103 26 inlet~ Right;
#X msg 190 301 \$1 100;
#X obj 190 282 r \$1_Pause;
#X msg 130 301 \$1 20;
#X msg 180 126 \$1 20;
#X msg 149 65 \$1 20;
#X msg 59 65 \$1 20;
#X msg 175 203 20;
#X connect 0 0 9 1;
#X connect 0 0 11 1;
#X connect 1 0 10 1;
#X connect 1 0 12 1;
#X connect 2 0 22 0;
#X connect 3 0 30 0;
#X connect 4 0 28 0;
#X connect 5 0 11 0;
#X connect 6 0 20 0;
#X connect 7 0 19 0;
#X connect 8 0 9 0;
#X connect 9 0 10 0;
#X connect 10 0 24 0;
#X connect 11 0 12 0;
#X connect 12 0 25 0;
#X connect 13 0 6 1;
#X connect 14 0 7 1;
#X connect 15 0 5 1;
#X connect 15 0 8 1;
#X connect 16 0 31 0;
#X connect 17 0 32 0;
#X connect 18 0 33 0;
#X connect 19 0 5 0;
#X connect 20 0 8 0;
#X connect 21 0 23 0;
#X connect 21 1 23 1;
#X connect 22 0 21 0;
#X connect 22 1 34 0;
#X connect 23 0 0 0;
#X connect 26 0 6 0;
#X connect 27 0 7 0;
#X connect 28 0 1 0;
#X connect 29 0 28 0;
#X connect 30 0 1 0;
#X connect 31 0 15 0;
#X connect 32 0 14 0;
#X connect 33 0 13 0;
#X connect 34 0 23 1;
