#N canvas 328 577 340 170 10;
#X obj 15 100 outlet~ Left;
#X obj 129 100 outlet~ Right;
#X msg 15 40 set UVoice\$1Left;
#X msg 129 40 set UVoice\$1Right;
#X obj 15 -20 r \$1_Voice;
#X obj 15 60 r~ UVoiceEmpty;
#X obj 129 60 r~ UVoiceEmpty;
#X obj 15 0 sel -1;
#X msg 15 20 set UVoiceEmpty;
#X msg 129 20 set UVoiceEmpty;
#X obj 15 80 *~;
#X obj 129 80 *~;
#X obj 251 64 line~;
#X obj 251 26 unpack f f;
#X obj 251 -10 t a b;
#X obj 251 45 pack f f;
#X obj 251 -29 r \$1_Volume;
#X msg 296 7 20;
#X connect 2 0 5 0;
#X connect 3 0 6 0;
#X connect 4 0 7 0;
#X connect 5 0 10 0;
#X connect 6 0 11 0;
#X connect 7 0 8 0;
#X connect 7 0 9 0;
#X connect 7 1 2 0;
#X connect 7 1 3 0;
#X connect 8 0 5 0;
#X connect 9 0 6 0;
#X connect 10 0 0 0;
#X connect 11 0 1 0;
#X connect 12 0 11 1;
#X connect 12 0 10 1;
#X connect 13 0 15 0;
#X connect 13 1 15 1;
#X connect 14 0 13 0;
#X connect 14 1 17 0;
#X connect 15 0 12 0;
#X connect 16 0 14 0;
#X connect 17 0 15 1;
